<?xml version="1.0" encoding="UTF-8" standalone="no" ?><!DOCTYPE svg PUBLIC "-//W3C//DTD SVG 1.1//EN" "http://www.w3.org/Graphics/SVG/1.1/DTD/svg11.dtd">
<svg xmlns="http://www.w3.org/2000/svg" xmlns:xlink="http://www.w3.org/1999/xlink" version="1.1" width="800" height="500" xml:space="preserve"><desc>Created with Fabric.js 1.5.0</desc><defs></defs><g style="stroke: none; stroke-width: 1; stroke-dasharray: ; stroke-linecap: butt; stroke-linejoin: miter; stroke-miterlimit: 10; fill: none; fill-rule: nonzero; opacity: 1;" transform="translate(222.64000000000001 41.72999999999999) scale(2.7 2.7)" >
<path d="M 86.2 10.35 c -2.267 -0.1 -4.384 -0.75 -6.351 -1.95 c -1.5 -0.9 -2.949 -2.167 -4.35 -3.8 c -3.633 1.667 -8.05 4.433 -13.25 8.3 c -4.867 3.6 -9.6 7.833 -14.2 12.7 c -0.5 2.3 -0.267 4.95 0.7 7.95 c 1.133 3.233 2.55 5.883 4.25 7.95 c 2.434 -1.4 4.517 -1.933 6.25 -1.6 c 1.967 0.367 3.883 1.934 5.75 4.7 l 0.35 0.45 v 0.7 l -0.1 34.35 c -0.566 5.5 0.267 10.768 2.5 15.801 c 2.1 4.899 8.184 7.6 18.25 8.1 l 0.1 3.9 c -11.633 -0.566 -18.816 -3.917 -21.549 -10.051 c -2.633 -5.899 -3.633 -11.816 -3 -17.75 l 0.1 -33.649 c -1.233 -1.667 -2.233 -2.583 -3 -2.75 c -0.9 -0.2 -2.55 0.417 -4.95 1.85 l -1.25 0.65 l -0.95 -0.9 c -2.6 -2.566 -4.667 -6.1 -6.2 -10.6 c -1.367 -3.867 -1.567 -7.434 -0.6 -10.7 l 0.15 -0.35 l 0.2 -0.35 c 4.833 -5.167 9.833 -9.633 15 -13.4 c 6.233 -4.6 11.383 -7.7 15.45 -9.3 L 76.85 0 l 0.951 1.15 c 1.366 1.767 2.783 3.117 4.25 4.05 c 1.366 0.8 2.783 1.25 4.25 1.35 L 86.2 10.35 z" style="stroke: none; stroke-width: 1; stroke-dasharray: ; stroke-linecap: butt; stroke-linejoin: miter; stroke-miterlimit: 10; fill: rgb(0,0,0); fill-rule: evenodd; opacity: 1;" transform="" stroke-linecap="round" />
<path d="M 64.1 10.35 c -2.133 -0.067 -4.167 -0.717 -6.1 -1.95 c -1.533 -0.9 -3 -2.167 -4.4 -3.8 c -3.6 1.667 -8.017 4.433 -13.25 8.3 c -4.833 3.6 -9.55 7.833 -14.15 12.7 c -0.534 2.3 -0.3 4.95 0.7 7.95 c 1.1 3.233 2.517 5.883 4.25 7.95 c 2.4 -1.4 4.467 -1.933 6.2 -1.6 c 2 0.367 3.933 1.934 5.8 4.7 l 0.35 0.45 v 0.7 L 43.35 80.1 c -0.533 5.5 0.316 10.768 2.55 15.801 c 2.1 4.899 8.167 7.6 18.2 8.1 l -0.1 3.9 c -11.633 -0.566 -18.817 -3.917 -21.55 -10.051 c -2.633 -5.899 -3.633 -11.816 -3 -17.75 l 0.1 -33.649 c -1.233 -1.667 -2.233 -2.583 -3 -2.75 c -0.9 -0.2 -2.55 0.417 -4.95 1.85 l -1.25 0.65 l -0.95 -0.9 c -2.6 -2.566 -4.667 -6.1 -6.2 -10.6 c -1.367 -3.867 -1.567 -7.434 -0.6 -10.7 l 0.15 -0.35 l 0.2 -0.35 c 4.9 -5.167 9.9 -9.633 15 -13.4 c 6.233 -4.6 11.383 -7.7 15.45 -9.3 L 54.75 0 l 0.95 1.15 c 1.367 1.767 2.783 3.117 4.25 4.05 c 1.367 0.8 2.783 1.25 4.25 1.35 L 64.1 10.35 z" style="stroke: none; stroke-width: 1; stroke-dasharray: ; stroke-linecap: butt; stroke-linejoin: miter; stroke-miterlimit: 10; fill: rgb(0,0,0); fill-rule: evenodd; opacity: 1;" transform="" stroke-linecap="round" />
<path d="M 42.1 10.35 c -2.267 -0.1 -4.383 -0.75 -6.35 -1.95 c -1.5 -0.9 -2.95 -2.167 -4.35 -3.8 c -3.633 1.667 -8.05 4.433 -13.25 8.3 c -4.867 3.6 -9.6 7.833 -14.2 12.7 c -0.5 2.3 -0.267 4.95 0.7 7.95 c 1.133 3.233 2.55 5.883 4.25 7.95 c 2.434 -1.4 4.517 -1.933 6.25 -1.6 c 1.967 0.367 3.883 1.934 5.75 4.7 l 0.35 0.45 v 0.7 l -0.1 34.35 c -0.566 5.5 0.267 10.768 2.5 15.801 c 2.1 4.899 8.184 7.6 18.25 8.1 l 0.1 3.9 c -11.633 -0.566 -18.817 -3.917 -21.55 -10.051 c -2.633 -5.899 -3.633 -11.816 -3 -17.75 l 0.1 -33.649 c -1.233 -1.667 -2.233 -2.583 -3 -2.75 c -0.9 -0.2 -2.55 0.417 -4.95 1.85 L 8.35 46.2 L 7.4 45.3 c -2.6 -2.566 -4.667 -6.1 -6.2 -10.6 c -1.367 -3.867 -1.567 -7.434 -0.6 -10.7 l 0.15 -0.35 l 0.2 -0.35 c 4.833 -5.167 9.833 -9.633 15 -13.4 c 6.233 -4.6 11.383 -7.7 15.45 -9.3 L 32.75 0 l 0.95 1.15 c 1.367 1.767 2.783 3.117 4.25 4.05 c 1.367 0.8 2.783 1.25 4.25 1.35 L 42.1 10.35 z" style="stroke: none; stroke-width: 1; stroke-dasharray: ; stroke-linecap: butt; stroke-linejoin: miter; stroke-miterlimit: 10; fill: rgb(0,0,0); fill-rule: evenodd; opacity: 1;" transform="" stroke-linecap="round" />
<path d="M 100.95 0.8 c 3.667 1.5 8.333 4.283 14 8.35 c 5.7 4.066 11.267 8.967 16.7 14.7 c -1.133 2.9 -2.017 6.367 -2.65 10.4 c -0.633 4.033 -1.949 7.216 -3.949 9.55 c -2.867 -1.733 -5.018 -2.467 -6.45 -2.2 c -1.434 0.3 -3 1.684 -4.7 4.15 c 0.066 20.699 0.133 41.416 0.2 62.15 L 89.9 108 V 7.05 C 93.2 7.85 96.884 5.767 100.95 0.8 z" style="stroke: none; stroke-width: 1; stroke-dasharray: ; stroke-linecap: butt; stroke-linejoin: miter; stroke-miterlimit: 10; fill: #F99D1C; fill-rule: evenodd; opacity: 1;" transform="" stroke-linecap="round" />
</g>
	<g transform="translate(398.97 391.69)">
		<text font-family="Abril Fatface" font-size="70" font-weight="normal" style="stroke: none; stroke-width: 1; stroke-dasharray: ; stroke-linecap: butt; stroke-linejoin: miter; stroke-miterlimit: 10; fill: #000000; fill-rule: nonzero; opacity: 1;" ><tspan x="-205.52" y="15.722" fill="#000000">e-Commerce</tspan></text>
	</g>
	<g transform="translate(400 464.21)">
		<text font-family="Abril Fatface" font-size="56" font-weight="normal" style="stroke: none; stroke-width: 1; stroke-dasharray: ; stroke-linecap: butt; stroke-linejoin: miter; stroke-miterlimit: 10; fill: #000000; fill-rule: nonzero; opacity: 1;" ><tspan x="0" y="12.5776" fill="#000000"></tspan></text>
	</g>
</svg>